<svg xmlns="http://www.w3.org/2000/svg" width="980" height="560" viewBox="0 0 980 560">
<style>text{font-family:Helvetica,Arial,sans-serif;fill:#222} .small{font-size:12px} .label{font-size:14px} .title{font-size:22px;font-weight:700} .axis{stroke:#444;stroke-width:1.2} .grid{stroke:#d0d0d0;stroke-width:1} .line{fill:none;stroke:#4c78a8;stroke-width:2.2} </style>
<text x="490" y="34" text-anchor="middle" class="title">Attempt-Level Verification Latency</text>
<line x1="90" y1="450.00" x2="950" y2="450.00" class="grid"/>
<text x="78" y="454.00" text-anchor="end" class="small">0.0s</text>
<line x1="90" y1="374.00" x2="950" y2="374.00" class="grid"/>
<text x="78" y="378.00" text-anchor="end" class="small">1.6s</text>
<line x1="90" y1="298.00" x2="950" y2="298.00" class="grid"/>
<text x="78" y="302.00" text-anchor="end" class="small">3.1s</text>
<line x1="90" y1="222.00" x2="950" y2="222.00" class="grid"/>
<text x="78" y="226.00" text-anchor="end" class="small">4.7s</text>
<line x1="90" y1="146.00" x2="950" y2="146.00" class="grid"/>
<text x="78" y="150.00" text-anchor="end" class="small">6.3s</text>
<line x1="90" y1="70.00" x2="950" y2="70.00" class="grid"/>
<text x="78" y="74.00" text-anchor="end" class="small">7.8s</text>
<line x1="90" y1="70" x2="90" y2="450" class="axis"/>
<line x1="90" y1="450" x2="950" y2="450" class="axis"/>
<text x="20" y="260.0" transform="rotate(-90 20 260.0)" text-anchor="middle" class="label">Total Verify Time</text>
<text x="520.0" y="520" text-anchor="middle" class="label">Chronological attempt index</text>
<circle cx="90.00" cy="135.99" r="6.5" fill="#d95f02" stroke="white" stroke-width="1.2"/>
<text x="90.00" y="474" text-anchor="middle" class="small">1</text>
<circle cx="147.33" cy="134.05" r="6.5" fill="#7570b3" stroke="white" stroke-width="1.2"/>
<text x="147.33" y="474" text-anchor="middle" class="small">2</text>
<circle cx="204.67" cy="133.81" r="6.5" fill="#7570b3" stroke="white" stroke-width="1.2"/>
<text x="204.67" y="474" text-anchor="middle" class="small">3</text>
<circle cx="262.00" cy="132.84" r="6.5" fill="#7570b3" stroke="white" stroke-width="1.2"/>
<text x="262.00" y="474" text-anchor="middle" class="small">4</text>
<circle cx="319.33" cy="133.57" r="6.5" fill="#7570b3" stroke="white" stroke-width="1.2"/>
<text x="319.33" y="474" text-anchor="middle" class="small">5</text>
<circle cx="376.67" cy="131.39" r="6.5" fill="#7570b3" stroke="white" stroke-width="1.2"/>
<text x="376.67" y="474" text-anchor="middle" class="small">6</text>
<circle cx="434.00" cy="133.08" r="6.5" fill="#7570b3" stroke="white" stroke-width="1.2"/>
<text x="434.00" y="474" text-anchor="middle" class="small">7</text>
<circle cx="491.33" cy="267.74" r="6.5" fill="#1b9e77" stroke="white" stroke-width="1.2"/>
<text x="491.33" y="474" text-anchor="middle" class="small">8</text>
<circle cx="548.67" cy="117.40" r="6.5" fill="#d95f02" stroke="white" stroke-width="1.2"/>
<text x="548.67" y="474" text-anchor="middle" class="small">9</text>
<circle cx="606.00" cy="178.79" r="6.5" fill="#e7298a" stroke="white" stroke-width="1.2"/>
<text x="606.00" y="474" text-anchor="middle" class="small">10</text>
<circle cx="663.33" cy="191.53" r="6.5" fill="#d95f02" stroke="white" stroke-width="1.2"/>
<text x="663.33" y="474" text-anchor="middle" class="small">11</text>
<circle cx="720.67" cy="110.71" r="6.5" fill="#7570b3" stroke="white" stroke-width="1.2"/>
<text x="720.67" y="474" text-anchor="middle" class="small">12</text>
<circle cx="778.00" cy="118.36" r="6.5" fill="#d95f02" stroke="white" stroke-width="1.2"/>
<text x="778.00" y="474" text-anchor="middle" class="small">13</text>
<circle cx="835.33" cy="117.83" r="6.5" fill="#7570b3" stroke="white" stroke-width="1.2"/>
<text x="835.33" y="474" text-anchor="middle" class="small">14</text>
<circle cx="892.67" cy="117.11" r="6.5" fill="#7570b3" stroke="white" stroke-width="1.2"/>
<text x="892.67" y="474" text-anchor="middle" class="small">15</text>
<circle cx="950.00" cy="116.09" r="6.5" fill="#d95f02" stroke="white" stroke-width="1.2"/>
<text x="950.00" y="474" text-anchor="middle" class="small">16</text>
<polyline points="90.00,135.99 147.33,134.05 204.67,133.81 262.00,132.84 319.33,133.57 376.67,131.39 434.00,133.08 491.33,267.74 548.67,117.40 606.00,178.79 663.33,191.53 720.67,110.71 778.00,118.36 835.33,117.83 892.67,117.11 950.00,116.09" class="line"/>
<circle cx="725" cy="78" r="6" fill="#1b9e77"/>
<text x="739" y="82" class="label">PRESENT</text>
<circle cx="725" cy="102" r="6" fill="#d95f02"/>
<text x="739" y="106" class="label">FLAGGED</text>
<circle cx="725" cy="126" r="6" fill="#7570b3"/>
<text x="739" y="130" class="label">REJECTED_SCORE</text>
<circle cx="725" cy="150" r="6" fill="#e7298a"/>
<text x="739" y="154" class="label">REJECTED_ROOM</text>
</svg>