<svg xmlns="http://www.w3.org/2000/svg" width="920" height="540" viewBox="0 0 920 540">
<style>text{font-family:Helvetica,Arial,sans-serif;fill:#222} .small{font-size:12px} .label{font-size:14px} .title{font-size:22px;font-weight:700} .axis{stroke:#444;stroke-width:1.2} .grid{stroke:#d0d0d0;stroke-width:1} </style>
<text x="460.0" y="34" text-anchor="middle" class="title">Attempt Outcome Distribution</text>
<line x1="90" y1="430.00" x2="890" y2="430.00" class="grid"/>
<text x="78" y="434.00" text-anchor="end" class="small">0</text>
<line x1="90" y1="358.00" x2="890" y2="358.00" class="grid"/>
<text x="78" y="362.00" text-anchor="end" class="small">2</text>
<line x1="90" y1="286.00" x2="890" y2="286.00" class="grid"/>
<text x="78" y="290.00" text-anchor="end" class="small">4</text>
<line x1="90" y1="214.00" x2="890" y2="214.00" class="grid"/>
<text x="78" y="218.00" text-anchor="end" class="small">6</text>
<line x1="90" y1="142.00" x2="890" y2="142.00" class="grid"/>
<text x="78" y="146.00" text-anchor="end" class="small">8</text>
<line x1="90" y1="70.00" x2="890" y2="70.00" class="grid"/>
<text x="78" y="74.00" text-anchor="end" class="small">10</text>
<line x1="90" y1="70" x2="90" y2="430" class="axis"/>
<line x1="90" y1="430" x2="890" y2="430" class="axis"/>
<text x="20" y="250.0" transform="rotate(-90 20 250.0)" text-anchor="middle" class="label">Attempt count</text>
<rect x="135.00" y="106.00" width="110.00" height="324.00" fill="#7570b3" rx="4"/>
<text x="190.00" y="98.00" text-anchor="middle" class="label">9.0</text>
<text x="190.00" y="472" text-anchor="middle" class="label">Rejected Score</text>
<rect x="335.00" y="394.00" width="110.00" height="36.00" fill="#e7298a" rx="4"/>
<text x="390.00" y="386.00" text-anchor="middle" class="label">1.0</text>
<text x="390.00" y="472" text-anchor="middle" class="label">Rejected Room</text>
<rect x="535.00" y="250.00" width="110.00" height="180.00" fill="#d95f02" rx="4"/>
<text x="590.00" y="242.00" text-anchor="middle" class="label">5.0</text>
<text x="590.00" y="472" text-anchor="middle" class="label">Flagged</text>
<rect x="735.00" y="394.00" width="110.00" height="36.00" fill="#1b9e77" rx="4"/>
<text x="790.00" y="386.00" text-anchor="middle" class="label">1.0</text>
<text x="790.00" y="472" text-anchor="middle" class="label">Present</text>
</svg>